<svg width="556" height="663" viewBox="0 0 556 663" fill="none" xmlns="http://www.w3.org/2000/svg">
<ellipse cx="278.72" cy="284.512" rx="274.5" ry="281.5" fill="#000210"/>
<rect x="137.22" y="118.012" width="51" height="370" rx="23" stroke="#1FF8F9" stroke-width="6"/>
<path d="M289.22 369.012L286.829 371.568C286.895 371.63 286.963 371.689 287.033 371.745L289.22 369.012ZM295.22 119.012V115.512C293.287 115.512 291.72 117.079 291.72 119.012H295.22ZM295.22 306.012L292.877 308.612C293.904 309.538 295.379 309.772 296.643 309.21C297.906 308.648 298.72 307.395 298.72 306.012H295.22ZM254.72 269.512H251.22C251.22 270.504 251.64 271.448 252.377 272.112L254.72 269.512ZM254.72 77.0121V73.5121C252.787 73.5121 251.22 75.0791 251.22 77.0121H254.72ZM390.72 155.512H387.22C387.22 155.576 387.221 155.64 387.225 155.705L390.72 155.512ZM340.22 245.512L338.165 242.679C337.315 243.295 336.786 244.261 336.726 245.309C336.665 246.358 337.078 247.378 337.851 248.089L340.22 245.512ZM464.22 359.512L466.695 357.037C466.66 357.003 466.625 356.969 466.588 356.936L464.22 359.512ZM478.22 441.512L475.839 444.078C476.859 445.024 478.343 445.277 479.619 444.72C480.895 444.164 481.72 442.904 481.72 441.512H478.22ZM210.22 294.012L212.663 291.506L210.22 294.012ZM355.6 322.947C354.184 321.632 351.969 321.714 350.654 323.131C349.339 324.548 349.422 326.763 350.839 328.078L355.6 322.947ZM287.033 371.745C296.961 379.687 310.103 380.133 320.597 375.881C331.073 371.636 339.72 362.331 339.72 350.012H332.72C332.72 358.693 326.617 365.889 317.968 369.393C309.336 372.891 298.979 372.337 291.406 366.279L287.033 371.745ZM336.22 350.012C339.72 350.012 339.72 350.011 339.72 350.01C339.72 350.008 339.72 350.006 339.72 350.003C339.72 350 339.72 349.996 339.72 349.991C339.72 349.987 339.72 349.981 339.72 349.975C339.72 349.969 339.72 349.962 339.72 349.954C339.72 349.946 339.72 349.938 339.72 349.929C339.72 349.919 339.72 349.91 339.72 349.899C339.72 349.888 339.72 349.877 339.72 349.864C339.72 349.852 339.72 349.839 339.72 349.825C339.72 349.811 339.72 349.797 339.72 349.782C339.72 349.766 339.72 349.75 339.72 349.734C339.72 349.717 339.72 349.699 339.72 349.681C339.72 349.663 339.72 349.644 339.72 349.624C339.72 349.604 339.72 349.584 339.72 349.563C339.72 349.542 339.72 349.52 339.72 349.497C339.72 349.474 339.72 349.451 339.72 349.427C339.72 349.402 339.72 349.378 339.72 349.352C339.72 349.326 339.72 349.3 339.72 349.273C339.72 349.246 339.72 349.218 339.72 349.19C339.72 349.161 339.72 349.132 339.72 349.102C339.72 349.072 339.72 349.041 339.72 349.01C339.72 348.979 339.72 348.947 339.72 348.914C339.72 348.881 339.72 348.847 339.72 348.813C339.72 348.779 339.72 348.744 339.72 348.708C339.72 348.673 339.72 348.636 339.72 348.599C339.72 348.562 339.72 348.525 339.72 348.486C339.72 348.448 339.72 348.408 339.72 348.369C339.72 348.329 339.72 348.288 339.72 348.247C339.72 348.206 339.72 348.164 339.72 348.121C339.72 348.078 339.72 348.035 339.72 347.991C339.72 347.947 339.72 347.902 339.72 347.857C339.72 347.812 339.72 347.765 339.72 347.719C339.72 347.672 339.72 347.624 339.72 347.576C339.72 347.528 339.72 347.479 339.72 347.43C339.72 347.38 339.72 347.33 339.72 347.279C339.72 347.229 339.72 347.177 339.72 347.125C339.72 347.073 339.72 347.02 339.72 346.966C339.72 346.913 339.72 346.859 339.72 346.804C339.72 346.749 339.72 346.693 339.72 346.637C339.72 346.581 339.72 346.524 339.72 346.467C339.72 346.409 339.72 346.351 339.72 346.292C339.72 346.233 339.72 346.174 339.72 346.114C339.72 346.053 339.72 345.993 339.72 345.931C339.72 345.87 339.72 345.808 339.72 345.745C339.72 345.682 339.72 345.619 339.72 345.555C339.72 345.491 339.72 345.426 339.72 345.361C339.72 345.295 339.72 345.229 339.72 345.163C339.72 345.096 339.72 345.029 339.72 344.961C339.72 344.893 339.72 344.825 339.72 344.756C339.72 344.687 339.72 344.617 339.72 344.546C339.72 344.476 339.72 344.405 339.72 344.333C339.72 344.262 339.72 344.189 339.72 344.116C339.72 344.043 339.72 343.97 339.72 343.896C339.72 343.822 339.72 343.747 339.72 343.671C339.72 343.596 339.72 343.52 339.72 343.443C339.72 343.367 339.72 343.289 339.72 343.212C339.72 343.134 339.72 343.055 339.72 342.976C339.72 342.897 339.72 342.817 339.72 342.737C339.72 342.657 339.72 342.576 339.72 342.494C339.72 342.413 339.72 342.331 339.72 342.248C339.72 342.165 339.72 342.082 339.72 341.998C339.72 341.914 339.72 341.83 339.72 341.745C339.72 341.66 339.72 341.574 339.72 341.488C339.72 341.401 339.72 341.314 339.72 341.227C339.72 341.14 339.72 341.051 339.72 340.963C339.72 340.874 339.72 340.785 339.72 340.695C339.72 340.605 339.72 340.515 339.72 340.424C339.72 340.333 339.72 340.241 339.72 340.149C339.72 340.057 339.72 339.965 339.72 339.871C339.72 339.778 339.72 339.684 339.72 339.59C339.72 339.495 339.72 339.4 339.72 339.305C339.72 339.209 339.72 339.113 339.72 339.016C339.72 338.92 339.72 338.822 339.72 338.725C339.72 338.627 339.72 338.528 339.72 338.43C339.72 338.331 339.72 338.231 339.72 338.131C339.72 338.031 339.72 337.93 339.72 337.829C339.72 337.728 339.72 337.626 339.72 337.524C339.72 337.422 339.72 337.319 339.72 337.216C339.72 337.112 339.72 337.008 339.72 336.904C339.72 336.8 339.72 336.695 339.72 336.589C339.72 336.483 339.72 336.377 339.72 336.271C339.72 336.164 339.72 336.057 339.72 335.949C339.72 335.842 339.72 335.733 339.72 335.625C339.72 335.516 339.72 335.407 339.72 335.297C339.72 335.187 339.72 335.077 339.72 334.966C339.72 334.855 339.72 334.744 339.72 334.632C339.72 334.52 339.72 334.407 339.72 334.294C339.72 334.181 339.72 334.068 339.72 333.954C339.72 333.84 339.72 333.725 339.72 333.61C339.72 333.495 339.72 333.38 339.72 333.264C339.72 333.148 339.72 333.031 339.72 332.914C339.72 332.797 339.72 332.679 339.72 332.561C339.72 332.443 339.72 332.325 339.72 332.205C339.72 332.086 339.72 331.967 339.72 331.847C339.72 331.727 339.72 331.606 339.72 331.485C339.72 331.364 339.72 331.242 339.72 331.12C339.72 330.998 339.72 330.875 339.72 330.752C339.72 330.629 339.72 330.506 339.72 330.382C339.72 330.258 339.72 330.133 339.72 330.008C339.72 329.883 339.72 329.758 339.72 329.632C339.72 329.506 339.72 329.379 339.72 329.252C339.72 329.125 339.72 328.998 339.72 328.87C339.72 328.742 339.72 328.614 339.72 328.485C339.72 328.356 339.72 328.227 339.72 328.097C339.72 327.967 339.72 327.837 339.72 327.706C339.72 327.575 339.72 327.444 339.72 327.312C339.72 327.181 339.72 327.049 339.72 326.916C339.72 326.783 339.72 326.65 339.72 326.517C339.72 326.383 339.72 326.249 339.72 326.115C339.72 325.981 339.72 325.846 339.72 325.71C339.72 325.575 339.72 325.439 339.72 325.303C339.72 325.167 339.72 325.03 339.72 324.893C339.72 324.756 339.72 324.618 339.72 324.48C339.72 324.342 339.72 324.204 339.72 324.065C339.72 323.926 339.72 323.787 339.72 323.647C339.72 323.507 339.72 323.367 339.72 323.226C339.72 323.086 339.72 322.945 339.72 322.803C339.72 322.662 339.72 322.52 339.72 322.377C339.72 322.235 339.72 322.092 339.72 321.949C339.72 321.806 339.72 321.662 339.72 321.518C339.72 321.374 339.72 321.23 339.72 321.085C339.72 320.94 339.72 320.794 339.72 320.649C339.72 320.503 339.72 320.357 339.72 320.21C339.72 320.064 339.72 319.917 339.72 319.769C339.72 319.622 339.72 319.474 339.72 319.326C339.72 319.178 339.72 319.029 339.72 318.88C339.72 318.731 339.72 318.581 339.72 318.432C339.72 318.282 339.72 318.132 339.72 317.981C339.72 317.83 339.72 317.679 339.72 317.528C339.72 317.376 339.72 317.225 339.72 317.072C339.72 316.92 339.72 316.768 339.72 316.615C339.72 316.462 339.72 316.308 339.72 316.154C339.72 316.001 339.72 315.846 339.72 315.692C339.72 315.537 339.72 315.382 339.72 315.227C339.72 315.072 339.72 314.916 339.72 314.76C339.72 314.604 339.72 314.447 339.72 314.291C339.72 314.134 339.72 313.977 339.72 313.819C339.72 313.661 339.72 313.504 339.72 313.345C339.72 313.187 339.72 313.028 339.72 312.869C339.72 312.71 339.72 312.551 339.72 312.391C339.72 312.231 339.72 312.071 339.72 311.911C339.72 311.75 339.72 311.589 339.72 311.428C339.72 311.267 339.72 311.105 339.72 310.943C339.72 310.781 339.72 310.619 339.72 310.456C339.72 310.294 339.72 310.131 339.72 309.967C339.72 309.804 339.72 309.64 339.72 309.476C339.72 309.312 339.72 309.148 339.72 308.983C339.72 308.819 339.72 308.654 339.72 308.488C339.72 308.323 339.72 308.157 339.72 307.991C339.72 307.825 339.72 307.658 339.72 307.492C339.72 307.325 339.72 307.158 339.72 306.991C339.72 306.823 339.72 306.655 339.72 306.487C339.72 306.319 339.72 306.151 339.72 305.982C339.72 305.813 339.72 305.644 339.72 305.475C339.72 305.306 339.72 305.136 339.72 304.966C339.72 304.796 339.72 304.626 339.72 304.455C339.72 304.284 339.72 304.113 339.72 303.942C339.72 303.771 339.72 303.599 339.72 303.428C339.72 303.256 339.72 303.083 339.72 302.911C339.72 302.738 339.72 302.566 339.72 302.393C339.72 302.219 339.72 302.046 339.72 301.872C339.72 301.699 339.72 301.525 339.72 301.35C339.72 301.176 339.72 301.001 339.72 300.826C339.72 300.651 339.72 300.476 339.72 300.301C339.72 300.125 339.72 299.95 339.72 299.773C339.72 299.597 339.72 299.421 339.72 299.244C339.72 299.068 339.72 298.891 339.72 298.714C339.72 298.536 339.72 298.359 339.72 298.181C339.72 298.003 339.72 297.825 339.72 297.647C339.72 297.469 339.72 297.29 339.72 297.111C339.72 296.932 339.72 296.753 339.72 296.574C339.72 296.394 339.72 296.214 339.72 296.034C339.72 295.854 339.72 295.674 339.72 295.494C339.72 295.313 339.72 295.132 339.72 294.951C339.72 294.77 339.72 294.589 339.72 294.408C339.72 294.226 339.72 294.044 339.72 293.862C339.72 293.68 339.72 293.498 339.72 293.315C339.72 293.132 339.72 292.95 339.72 292.767C339.72 292.583 339.72 292.4 339.72 292.217C339.72 292.033 339.72 291.849 339.72 291.665C339.72 291.481 339.72 291.297 339.72 291.112C339.72 290.928 339.72 290.743 339.72 290.558C339.72 290.373 339.72 290.187 339.72 290.002C339.72 289.816 339.72 289.631 339.72 289.445C339.72 289.259 339.72 289.072 339.72 288.886C339.72 288.7 339.72 288.513 339.72 288.326C339.72 288.139 339.72 287.952 339.72 287.765C339.72 287.577 339.72 287.39 339.72 287.202C339.72 287.014 339.72 286.826 339.72 286.638C339.72 286.45 339.72 286.261 339.72 286.072C339.72 285.884 339.72 285.695 339.72 285.506C339.72 285.317 339.72 285.127 339.72 284.938C339.72 284.748 339.72 284.559 339.72 284.369C339.72 284.179 339.72 283.989 339.72 283.798C339.72 283.608 339.72 283.417 339.72 283.227C339.72 283.036 339.72 282.845 339.72 282.654C339.72 282.463 339.72 282.271 339.72 282.08C339.72 281.888 339.72 281.697 339.72 281.505C339.72 281.313 339.72 281.121 339.72 280.928C339.72 280.736 339.72 280.544 339.72 280.351C339.72 280.158 339.72 279.965 339.72 279.772C339.72 279.579 339.72 279.386 339.72 279.193C339.72 278.999 339.72 278.806 339.72 278.612C339.72 278.418 339.72 278.224 339.72 278.03C339.72 277.836 339.72 277.642 339.72 277.447C339.72 277.253 339.72 277.058 339.72 276.864C339.72 276.669 339.72 276.474 339.72 276.279C339.72 276.084 339.72 275.888 339.72 275.693C339.72 275.498 339.72 275.302 339.72 275.106C339.72 274.91 339.72 274.715 339.72 274.518C339.72 274.322 339.72 274.126 339.72 273.93C339.72 273.733 339.72 273.537 339.72 273.34C339.72 273.143 339.72 272.947 339.72 272.75C339.72 272.553 339.72 272.356 339.72 272.158C339.72 271.961 339.72 271.764 339.72 271.566C339.72 271.369 339.72 271.171 339.72 270.973C339.72 270.775 339.72 270.577 339.72 270.379C339.72 270.181 339.72 269.983 339.72 269.784C339.72 269.586 339.72 269.388 339.72 269.189C339.72 268.99 339.72 268.791 339.72 268.593C339.72 268.394 339.72 268.195 339.72 267.996C339.72 267.796 339.72 267.597 339.72 267.398C339.72 267.198 339.72 266.999 339.72 266.799C339.72 266.6 339.72 266.4 339.72 266.2C339.72 266 339.72 265.8 339.72 265.6C339.72 265.4 339.72 265.2 339.72 265C339.72 264.799 339.72 264.599 339.72 264.399C339.72 264.198 339.72 263.997 339.72 263.797C339.72 263.596 339.72 263.395 339.72 263.194C339.72 262.993 339.72 262.792 339.72 262.591C339.72 262.39 339.72 262.189 339.72 261.988C339.72 261.786 339.72 261.585 339.72 261.384C339.72 261.182 339.72 260.98 339.72 260.779C339.72 260.577 339.72 260.375 339.72 260.174C339.72 259.972 339.72 259.77 339.72 259.568C339.72 259.366 339.72 259.164 339.72 258.962C339.72 258.759 339.72 258.557 339.72 258.355C339.72 258.153 339.72 257.95 339.72 257.748C339.72 257.545 339.72 257.343 339.72 257.14C339.72 256.938 339.72 256.735 339.72 256.532C339.72 256.329 339.72 256.127 339.72 255.924C339.72 255.721 339.72 255.518 339.72 255.315C339.72 255.112 339.72 254.909 339.72 254.706C339.72 254.503 339.72 254.3 339.72 254.096C339.72 253.893 339.72 253.69 339.72 253.487C339.72 253.283 339.72 253.08 339.72 252.877C339.72 252.673 339.72 252.47 339.72 252.266C339.72 252.063 339.72 251.859 339.72 251.655C339.72 251.452 339.72 251.248 339.72 251.044C339.72 250.841 339.72 250.637 339.72 250.433C339.72 250.23 339.72 250.026 339.72 249.822C339.72 249.618 339.72 249.414 339.72 249.21C339.72 249.006 339.72 248.802 339.72 248.598C339.72 248.395 339.72 248.191 339.72 247.986C339.72 247.782 339.72 247.578 339.72 247.374C339.72 247.17 339.72 246.966 339.72 246.762C339.72 246.558 339.72 246.354 339.72 246.15C339.72 245.946 339.72 245.742 339.72 245.537C339.72 245.333 339.72 245.129 339.72 244.925C339.72 244.721 339.72 244.516 339.72 244.312C339.72 244.108 339.72 243.904 339.72 243.7C339.72 243.495 339.72 243.291 339.72 243.087C339.72 242.883 339.72 242.678 339.72 242.474C339.72 242.27 339.72 242.066 339.72 241.862C339.72 241.657 339.72 241.453 339.72 241.249C339.72 241.045 339.72 240.841 339.72 240.636C339.72 240.432 339.72 240.228 339.72 240.024C339.72 239.82 339.72 239.616 339.72 239.411C339.72 239.207 339.72 239.003 339.72 238.799C339.72 238.595 339.72 238.391 339.72 238.187C339.72 237.983 339.72 237.779 339.72 237.575C339.72 237.371 339.72 237.167 339.72 236.963C339.72 236.759 339.72 236.555 339.72 236.351C339.72 236.147 339.72 235.943 339.72 235.739C339.72 235.536 339.72 235.332 339.72 235.128C339.72 234.924 339.72 234.721 339.72 234.517C339.72 234.313 339.72 234.11 339.72 233.906C339.72 233.702 339.72 233.499 339.72 233.295C339.72 233.092 339.72 232.888 339.72 232.685C339.72 232.482 339.72 232.278 339.72 232.075C339.72 231.872 339.72 231.668 339.72 231.465C339.72 231.262 339.72 231.059 339.72 230.856C339.72 230.653 339.72 230.45 339.72 230.247C339.72 230.044 339.72 229.841 339.72 229.638C339.72 229.435 339.72 229.232 339.72 229.03C339.72 228.827 339.72 228.624 339.72 228.422C339.72 228.219 339.72 228.016 339.72 227.814C339.72 227.612 339.72 227.409 339.72 227.207C339.72 227.005 339.72 226.802 339.72 226.6C339.72 226.398 339.72 226.196 339.72 225.994C339.72 225.792 339.72 225.59 339.72 225.389C339.72 225.187 339.72 224.985 339.72 224.783C339.72 224.582 339.72 224.38 339.72 224.179C339.72 223.977 339.72 223.776 339.72 223.575C339.72 223.373 339.72 223.172 339.72 222.971C339.72 222.77 339.72 222.569 339.72 222.368C339.72 222.167 339.72 221.967 339.72 221.766C339.72 221.565 339.72 221.365 339.72 221.164C339.72 220.964 339.72 220.763 339.72 220.563C339.72 220.363 339.72 220.163 339.72 219.963C339.72 219.763 339.72 219.563 339.72 219.363C339.72 219.163 339.72 218.963 339.72 218.764C339.72 218.564 339.72 218.365 339.72 218.165C339.72 217.966 339.72 217.767 339.72 217.568C339.72 217.369 339.72 217.17 339.72 216.971C339.72 216.772 339.72 216.573 339.72 216.375C339.72 216.176 339.72 215.977 339.72 215.779C339.72 215.581 339.72 215.383 339.72 215.185C339.72 214.986 339.72 214.789 339.72 214.591C339.72 214.393 339.72 214.195 339.72 213.998C339.72 213.8 339.72 213.603 339.72 213.406C339.72 213.208 339.72 213.011 339.72 212.814C339.72 212.617 339.72 212.421 339.72 212.224C339.72 212.027 339.72 211.831 339.72 211.635C339.72 211.438 339.72 211.242 339.72 211.046C339.72 210.85 339.72 210.654 339.72 210.458C339.72 210.263 339.72 210.067 339.72 209.872C339.72 209.676 339.72 209.481 339.72 209.286C339.72 209.091 339.72 208.896 339.72 208.701C339.72 208.507 339.72 208.312 339.72 208.118C339.72 207.923 339.72 207.729 339.72 207.535C339.72 207.341 339.72 207.147 339.72 206.953C339.72 206.76 339.72 206.566 339.72 206.373C339.72 206.179 339.72 205.986 339.72 205.793C339.72 205.6 339.72 205.407 339.72 205.215C339.72 205.022 339.72 204.83 339.72 204.638C339.72 204.445 339.72 204.253 339.72 204.061C339.72 203.87 339.72 203.678 339.72 203.486C339.72 203.295 339.72 203.104 339.72 202.913C339.72 202.721 339.72 202.531 339.72 202.34C339.72 202.149 339.72 201.959 339.72 201.768C339.72 201.578 339.72 201.388 339.72 201.198C339.72 201.008 339.72 200.819 339.72 200.629C339.72 200.44 339.72 200.25 339.72 200.061C339.72 199.872 339.72 199.684 339.72 199.495C339.72 199.306 339.72 199.118 339.72 198.93C339.72 198.742 339.72 198.554 339.72 198.366C339.72 198.178 339.72 197.991 339.72 197.803C339.72 197.616 339.72 197.429 339.72 197.242C339.72 197.055 339.72 196.869 339.72 196.682C339.72 196.496 339.72 196.31 339.72 196.124C339.72 195.938 339.72 195.752 339.72 195.567C339.72 195.381 339.72 195.196 339.72 195.011C339.72 194.826 339.72 194.642 339.72 194.457C339.72 194.273 339.72 194.088 339.72 193.904C339.72 193.72 339.72 193.536 339.72 193.353C339.72 193.169 339.72 192.986 339.72 192.803C339.72 192.62 339.72 192.437 339.72 192.255C339.72 192.072 339.72 191.89 339.72 191.708C339.72 191.526 339.72 191.344 339.72 191.163C339.72 190.981 339.72 190.8 339.72 190.619C339.72 190.438 339.72 190.258 339.72 190.077C339.72 189.897 339.72 189.716 339.72 189.537C339.72 189.357 339.72 189.177 339.72 188.998C339.72 188.818 339.72 188.639 339.72 188.46C339.72 188.282 339.72 188.103 339.72 187.925C339.72 187.747 339.72 187.569 339.72 187.391C339.72 187.213 339.72 187.036 339.72 186.859C339.72 186.681 339.72 186.505 339.72 186.328C339.72 186.151 339.72 185.975 339.72 185.799C339.72 185.623 339.72 185.447 339.72 185.272C339.72 185.097 339.72 184.922 339.72 184.747C339.72 184.572 339.72 184.397 339.72 184.223C339.72 184.049 339.72 183.875 339.72 183.701C339.72 183.528 339.72 183.354 339.72 183.181C339.72 183.008 339.72 182.836 339.72 182.663C339.72 182.491 339.72 182.319 339.72 182.147C339.72 181.975 339.72 181.803 339.72 181.632C339.72 181.461 339.72 181.29 339.72 181.12C339.72 180.949 339.72 180.779 339.72 180.609C339.72 180.439 339.72 180.27 339.72 180.1C339.72 179.931 339.72 179.762 339.72 179.593C339.72 179.425 339.72 179.256 339.72 179.089C339.72 178.921 339.72 178.753 339.72 178.586C339.72 178.418 339.72 178.251 339.72 178.085C339.72 177.918 339.72 177.752 339.72 177.586C339.72 177.42 339.72 177.254 339.72 177.089C339.72 176.923 339.72 176.759 339.72 176.594C339.72 176.429 339.72 176.265 339.72 176.101C339.72 175.937 339.72 175.774 339.72 175.61C339.72 175.447 339.72 175.284 339.72 175.122C339.72 174.959 339.72 174.797 339.72 174.635C339.72 174.473 339.72 174.312 339.72 174.151C339.72 173.99 339.72 173.829 339.72 173.668C339.72 173.508 339.72 173.348 339.72 173.188C339.72 173.029 339.72 172.869 339.72 172.71C339.72 172.551 339.72 172.393 339.72 172.235C339.72 172.076 339.72 171.919 339.72 171.761C339.72 171.604 339.72 171.447 339.72 171.29C339.72 171.133 339.72 170.977 339.72 170.821C339.72 170.665 339.72 170.509 339.72 170.354C339.72 170.199 339.72 170.044 339.72 169.89C339.72 169.735 339.72 169.581 339.72 169.427C339.72 169.274 339.72 169.12 339.72 168.967C339.72 168.815 339.72 168.662 339.72 168.51C339.72 168.358 339.72 168.206 339.72 168.055C339.72 167.904 339.72 167.753 339.72 167.602C339.72 167.452 339.72 167.301 339.72 167.152C339.72 167.002 339.72 166.853 339.72 166.704C339.72 166.555 339.72 166.406 339.72 166.258C339.72 166.11 339.72 165.962 339.72 165.815C339.72 165.668 339.72 165.521 339.72 165.374C339.72 165.228 339.72 165.082 339.72 164.936C339.72 164.791 339.72 164.645 339.72 164.501C339.72 164.356 339.72 164.212 339.72 164.068C339.72 163.924 339.72 163.78 339.72 163.637C339.72 163.494 339.72 163.351 339.72 163.209C339.72 163.067 339.72 162.925 339.72 162.783C339.72 162.642 339.72 162.501 339.72 162.361C339.72 162.22 339.72 162.08 339.72 161.94C339.72 161.801 339.72 161.661 339.72 161.523C339.72 161.384 339.72 161.246 339.72 161.108C339.72 160.97 339.72 160.832 339.72 160.695C339.72 160.558 339.72 160.422 339.72 160.286C339.72 160.15 339.72 160.014 339.72 159.879C339.72 159.744 339.72 159.609 339.72 159.475C339.72 159.34 339.72 159.206 339.72 159.073C339.72 158.94 339.72 158.807 339.72 158.674C339.72 158.542 339.72 158.41 339.72 158.278C339.72 158.147 339.72 158.016 339.72 157.885C339.72 157.754 339.72 157.624 339.72 157.495C339.72 157.365 339.72 157.236 339.72 157.107C339.72 156.978 339.72 156.85 339.72 156.722C339.72 156.595 339.72 156.467 339.72 156.34C339.72 156.214 339.72 156.087 339.72 155.961C339.72 155.836 339.72 155.71 339.72 155.585C339.72 155.46 339.72 155.336 339.72 155.212C339.72 155.088 339.72 154.965 339.72 154.842C339.72 154.719 339.72 154.596 339.72 154.475C339.72 154.353 339.72 154.231 339.72 154.11C339.72 153.989 339.72 153.869 339.72 153.749C339.72 153.629 339.72 153.509 339.72 153.39C339.72 153.271 339.72 153.153 339.72 153.035C339.72 152.917 339.72 152.8 339.72 152.683C339.72 152.566 339.72 152.449 339.72 152.333C339.72 152.217 339.72 152.102 339.72 151.987C339.72 151.872 339.72 151.758 339.72 151.644C339.72 151.53 339.72 151.417 339.72 151.304C339.72 151.191 339.72 151.079 339.72 150.967C339.72 150.855 339.72 150.744 339.72 150.633C339.72 150.523 339.72 150.412 339.72 150.303C339.72 150.193 339.72 150.084 339.72 149.975C339.72 149.867 339.72 149.759 339.72 149.651C339.72 149.544 339.72 149.437 339.72 149.33C339.72 149.224 339.72 149.118 339.72 149.012C339.72 148.907 339.72 148.802 339.72 148.698C339.72 148.593 339.72 148.49 339.72 148.387C339.72 148.283 339.72 148.181 339.72 148.079C339.72 147.976 339.72 147.875 339.72 147.774C339.72 147.673 339.72 147.572 339.72 147.473C339.72 147.373 339.72 147.273 339.72 147.174C339.72 147.076 339.72 146.977 339.72 146.88C339.72 146.782 339.72 146.685 339.72 146.589C339.72 146.492 339.72 146.396 339.72 146.301C339.72 146.205 339.72 146.11 339.72 146.016C339.72 145.922 339.72 145.828 339.72 145.735C339.72 145.642 339.72 145.549 339.72 145.457C339.72 145.365 339.72 145.274 339.72 145.183C339.72 145.092 339.72 145.002 339.72 144.913C339.72 144.823 339.72 144.734 339.72 144.645C339.72 144.557 339.72 144.469 339.72 144.382C339.72 144.294 339.72 144.208 339.72 144.122C339.72 144.035 339.72 143.95 339.72 143.865C339.72 143.78 339.72 143.696 339.72 143.612C339.72 143.528 339.72 143.445 339.72 143.363C339.72 143.28 339.72 143.198 339.72 143.117C339.72 143.035 339.72 142.955 339.72 142.874C339.72 142.794 339.72 142.715 339.72 142.636C339.72 142.557 339.72 142.479 339.72 142.401C339.72 142.323 339.72 142.246 339.72 142.17C339.72 142.093 339.72 142.017 339.72 141.942C339.72 141.867 339.72 141.792 339.72 141.718C339.72 141.644 339.72 141.571 339.72 141.498C339.72 141.426 339.72 141.353 339.72 141.282C339.72 141.21 339.72 141.14 339.72 141.069C339.72 140.999 339.72 140.929 339.72 140.86C339.72 140.792 339.72 140.723 339.72 140.655C339.72 140.588 339.72 140.521 339.72 140.454C339.72 140.388 339.72 140.322 339.72 140.257C339.72 140.192 339.72 140.127 339.72 140.063C339.72 140 339.72 139.936 339.72 139.874C339.72 139.811 339.72 139.749 339.72 139.688C339.72 139.627 339.72 139.566 339.72 139.506C339.72 139.446 339.72 139.387 339.72 139.328C339.72 139.27 339.72 139.212 339.72 139.154C339.72 139.097 339.72 139.04 339.72 138.984C339.72 138.928 339.72 138.873 339.72 138.818C339.72 138.764 339.72 138.71 339.72 138.656C339.72 138.603 339.72 138.55 339.72 138.498C339.72 138.446 339.72 138.395 339.72 138.344C339.72 138.294 339.72 138.244 339.72 138.194C339.72 138.145 339.72 138.096 339.72 138.048C339.72 138 339.72 137.953 339.72 137.907C339.72 137.86 339.72 137.814 339.72 137.769C339.72 137.724 339.72 137.679 339.72 137.635C339.72 137.591 339.72 137.548 339.72 137.506C339.72 137.463 339.72 137.422 339.72 137.381C339.72 137.34 339.72 137.299 339.72 137.259C339.72 137.22 339.72 137.181 339.72 137.143C339.72 137.104 339.72 137.067 339.72 137.03C339.72 136.993 339.72 136.957 339.72 136.921C339.72 136.886 339.72 136.851 339.72 136.817C339.72 136.783 339.72 136.75 339.72 136.717C339.72 136.685 339.72 136.653 339.72 136.621C339.72 136.59 339.72 136.56 339.72 136.53C339.72 136.5 339.72 136.471 339.72 136.443C339.72 136.415 339.72 136.387 339.72 136.36C339.72 136.333 339.72 136.307 339.72 136.282C339.72 136.256 339.72 136.232 339.72 136.208C339.72 136.184 339.72 136.161 339.72 136.138C339.72 136.116 339.72 136.094 339.72 136.073C339.72 136.052 339.72 136.032 339.72 136.012H332.72C332.72 136.032 332.72 136.052 332.72 136.073C332.72 136.094 332.72 136.116 332.72 136.138C332.72 136.161 332.72 136.184 332.72 136.208C332.72 136.232 332.72 136.256 332.72 136.282C332.72 136.307 332.72 136.333 332.72 136.36C332.72 136.387 332.72 136.415 332.72 136.443C332.72 136.471 332.72 136.5 332.72 136.53C332.72 136.56 332.72 136.59 332.72 136.621C332.72 136.653 332.72 136.685 332.72 136.717C332.72 136.75 332.72 136.783 332.72 136.817C332.72 136.851 332.72 136.886 332.72 136.921C332.72 136.957 332.72 136.993 332.72 137.03C332.72 137.067 332.72 137.104 332.72 137.143C332.72 137.181 332.72 137.22 332.72 137.259C332.72 137.299 332.72 137.34 332.72 137.381C332.72 137.422 332.72 137.463 332.72 137.506C332.72 137.548 332.72 137.591 332.72 137.635C332.72 137.679 332.72 137.724 332.72 137.769C332.72 137.814 332.72 137.86 332.72 137.907C332.72 137.953 332.72 138 332.72 138.048C332.72 138.096 332.72 138.145 332.72 138.194C332.72 138.244 332.72 138.294 332.72 138.344C332.72 138.395 332.72 138.446 332.72 138.498C332.72 138.55 332.72 138.603 332.72 138.656C332.72 138.71 332.72 138.764 332.72 138.818C332.72 138.873 332.72 138.928 332.72 138.984C332.72 139.04 332.72 139.097 332.72 139.154C332.72 139.212 332.72 139.27 332.72 139.328C332.72 139.387 332.72 139.446 332.72 139.506C332.72 139.566 332.72 139.627 332.72 139.688C332.72 139.749 332.72 139.811 332.72 139.874C332.72 139.936 332.72 140 332.72 140.063C332.72 140.127 332.72 140.192 332.72 140.257C332.72 140.322 332.72 140.388 332.72 140.454C332.72 140.521 332.72 140.588 332.72 140.655C332.72 140.723 332.72 140.792 332.72 140.86C332.72 140.929 332.72 140.999 332.72 141.069C332.72 141.14 332.72 141.21 332.72 141.282C332.72 141.353 332.72 141.426 332.72 141.498C332.72 141.571 332.72 141.644 332.72 141.718C332.72 141.792 332.72 141.867 332.72 141.942C332.72 142.017 332.72 142.093 332.72 142.17C332.72 142.246 332.72 142.323 332.72 142.401C332.72 142.479 332.72 142.557 332.72 142.636C332.72 142.715 332.72 142.794 332.72 142.874C332.72 142.955 332.72 143.035 332.72 143.117C332.72 143.198 332.72 143.28 332.72 143.363C332.72 143.445 332.72 143.528 332.72 143.612C332.72 143.696 332.72 143.78 332.72 143.865C332.72 143.95 332.72 144.035 332.72 144.122C332.72 144.208 332.72 144.294 332.72 144.382C332.72 144.469 332.72 144.557 332.72 144.645C332.72 144.734 332.72 144.823 332.72 144.913C332.72 145.002 332.72 145.092 332.72 145.183C332.72 145.274 332.72 145.365 332.72 145.457C332.72 145.549 332.72 145.642 332.72 145.735C332.72 145.828 332.72 145.922 332.72 146.016C332.72 146.11 332.72 146.205 332.72 146.301C332.72 146.396 332.72 146.492 332.72 146.589C332.72 146.685 332.72 146.782 332.72 146.88C332.72 146.977 332.72 147.076 332.72 147.174C332.72 147.273 332.72 147.373 332.72 147.473C332.72 147.572 332.72 147.673 332.72 147.774C332.72 147.875 332.72 147.976 332.72 148.079C332.72 148.181 332.72 148.283 332.72 148.387C332.72 148.49 332.72 148.593 332.72 148.698C332.72 148.802 332.72 148.907 332.72 149.012C332.72 149.118 332.72 149.224 332.72 149.33C332.72 149.437 332.72 149.544 332.72 149.651C332.72 149.759 332.72 149.867 332.72 149.975C332.72 150.084 332.72 150.193 332.72 150.303C332.72 150.412 332.72 150.523 332.72 150.633C332.72 150.744 332.72 150.855 332.72 150.967C332.72 151.079 332.72 151.191 332.72 151.304C332.72 151.417 332.72 151.53 332.72 151.644C332.72 151.758 332.72 151.872 332.72 151.987C332.72 152.102 332.72 152.217 332.72 152.333C332.72 152.449 332.72 152.566 332.72 152.683C332.72 152.8 332.72 152.917 332.72 153.035C332.72 153.153 332.72 153.271 332.72 153.39C332.72 153.509 332.72 153.629 332.72 153.749C332.72 153.869 332.72 153.989 332.72 154.11C332.72 154.231 332.72 154.353 332.72 154.475C332.72 154.596 332.72 154.719 332.72 154.842C332.72 154.965 332.72 155.088 332.72 155.212C332.72 155.336 332.72 155.46 332.72 155.585C332.72 155.71 332.72 155.836 332.72 155.961C332.72 156.087 332.72 156.214 332.72 156.34C332.72 156.467 332.72 156.595 332.72 156.722C332.72 156.85 332.72 156.978 332.72 157.107C332.72 157.236 332.72 157.365 332.72 157.495C332.72 157.624 332.72 157.754 332.72 157.885C332.72 158.016 332.72 158.147 332.72 158.278C332.72 158.41 332.72 158.542 332.72 158.674C332.72 158.807 332.72 158.94 332.72 159.073C332.72 159.206 332.72 159.34 332.72 159.475C332.72 159.609 332.72 159.744 332.72 159.879C332.72 160.014 332.72 160.15 332.72 160.286C332.72 160.422 332.72 160.558 332.72 160.695C332.72 160.832 332.72 160.97 332.72 161.108C332.72 161.246 332.72 161.384 332.72 161.523C332.72 161.661 332.72 161.801 332.72 161.94C332.72 162.08 332.72 162.22 332.72 162.361C332.72 162.501 332.72 162.642 332.72 162.783C332.72 162.925 332.72 163.067 332.72 163.209C332.72 163.351 332.72 163.494 332.72 163.637C332.72 163.78 332.72 163.924 332.72 164.068C332.72 164.212 332.72 164.356 332.72 164.501C332.72 164.645 332.72 164.791 332.72 164.936C332.72 165.082 332.72 165.228 332.72 165.374C332.72 165.521 332.72 165.668 332.72 165.815C332.72 165.962 332.72 166.11 332.72 166.258C332.72 166.406 332.72 166.555 332.72 166.704C332.72 166.853 332.72 167.002 332.72 167.152C332.72 167.301 332.72 167.452 332.72 167.602C332.72 167.753 332.72 167.904 332.72 168.055C332.72 168.206 332.72 168.358 332.72 168.51C332.72 168.662 332.72 168.815 332.72 168.967C332.72 169.12 332.72 169.274 332.72 169.427C332.72 169.581 332.72 169.735 332.72 169.89C332.72 170.044 332.72 170.199 332.72 170.354C332.72 170.509 332.72 170.665 332.72 170.821C332.72 170.977 332.72 171.133 332.72 171.29C332.72 171.447 332.72 171.604 332.72 171.761C332.72 171.919 332.72 172.076 332.72 172.235C332.72 172.393 332.72 172.551 332.72 172.71C332.72 172.869 332.72 173.029 332.72 173.188C332.72 173.348 332.72 173.508 332.72 173.668C332.72 173.829 332.72 173.99 332.72 174.151C332.72 174.312 332.72 174.473 332.72 174.635C332.72 174.797 332.72 174.959 332.72 175.122C332.72 175.284 332.72 175.447 332.72 175.61C332.72 175.774 332.72 175.937 332.72 176.101C332.72 176.265 332.72 176.429 332.72 176.594C332.72 176.759 332.72 176.923 332.72 177.089C332.72 177.254 332.72 177.42 332.72 177.586C332.72 177.752 332.72 177.918 332.72 178.085C332.72 178.251 332.72 178.418 332.72 178.586C332.72 178.753 332.72 178.921 332.72 179.089C332.72 179.256 332.72 179.425 332.72 179.593C332.72 179.762 332.72 179.931 332.72 180.1C332.72 180.27 332.72 180.439 332.72 180.609C332.72 180.779 332.72 180.949 332.72 181.12C332.72 181.29 332.72 181.461 332.72 181.632C332.72 181.803 332.72 181.975 332.72 182.147C332.72 182.319 332.72 182.491 332.72 182.663C332.72 182.836 332.72 183.008 332.72 183.181C332.72 183.354 332.72 183.528 332.72 183.701C332.72 183.875 332.72 184.049 332.72 184.223C332.72 184.397 332.72 184.572 332.72 184.747C332.72 184.922 332.72 185.097 332.72 185.272C332.72 185.447 332.72 185.623 332.72 185.799C332.72 185.975 332.72 186.151 332.72 186.328C332.72 186.505 332.72 186.681 332.72 186.859C332.72 187.036 332.72 187.213 332.72 187.391C332.72 187.569 332.72 187.747 332.72 187.925C332.72 188.103 332.72 188.282 332.72 188.46C332.72 188.639 332.72 188.818 332.72 188.998C332.72 189.177 332.72 189.357 332.72 189.537C332.72 189.716 332.72 189.897 332.72 190.077C332.72 190.258 332.72 190.438 332.72 190.619C332.72 190.8 332.72 190.981 332.72 191.163C332.72 191.344 332.72 191.526 332.72 191.708C332.72 191.89 332.72 192.072 332.72 192.255C332.72 192.437 332.72 192.62 332.72 192.803C332.72 192.986 332.72 193.169 332.72 193.353C332.72 193.536 332.72 193.72 332.72 193.904C332.72 194.088 332.72 194.273 332.72 194.457C332.72 194.642 332.72 194.826 332.72 195.011C332.72 195.196 332.72 195.381 332.72 195.567C332.72 195.752 332.72 195.938 332.72 196.124C332.72 196.31 332.72 196.496 332.72 196.682C332.72 196.869 332.72 197.055 332.72 197.242C332.72 197.429 332.72 197.616 332.72 197.803C332.72 197.991 332.72 198.178 332.72 198.366C332.72 198.554 332.72 198.742 332.72 198.93C332.72 199.118 332.72 199.306 332.72 199.495C332.72 199.684 332.72 199.872 332.72 200.061C332.72 200.25 332.72 200.44 332.72 200.629C332.72 200.819 332.72 201.008 332.72 201.198C332.72 201.388 332.72 201.578 332.72 201.768C332.72 201.959 332.72 202.149 332.72 202.34C332.72 202.531 332.72 202.721 332.72 202.913C332.72 203.104 332.72 203.295 332.72 203.486C332.72 203.678 332.72 203.87 332.72 204.061C332.72 204.253 332.72 204.445 332.72 204.638C332.72 204.83 332.72 205.022 332.72 205.215C332.72 205.407 332.72 205.6 332.72 205.793C332.72 205.986 332.72 206.179 332.72 206.373C332.72 206.566 332.72 206.76 332.72 206.953C332.72 207.147 332.72 207.341 332.72 207.535C332.72 207.729 332.72 207.923 332.72 208.118C332.72 208.312 332.72 208.507 332.72 208.701C332.72 208.896 332.72 209.091 332.72 209.286C332.72 209.481 332.72 209.676 332.72 209.872C332.72 210.067 332.72 210.263 332.72 210.458C332.72 210.654 332.72 210.85 332.72 211.046C332.72 211.242 332.72 211.438 332.72 211.635C332.72 211.831 332.72 212.027 332.72 212.224C332.72 212.421 332.72 212.617 332.72 212.814C332.72 213.011 332.72 213.208 332.72 213.406C332.72 213.603 332.72 213.8 332.72 213.998C332.72 214.195 332.72 214.393 332.72 214.591C332.72 214.789 332.72 214.986 332.72 215.185C332.72 215.383 332.72 215.581 332.72 215.779C332.72 215.977 332.72 216.176 332.72 216.375C332.72 216.573 332.72 216.772 332.72 216.971C332.72 217.17 332.72 217.369 332.72 217.568C332.72 217.767 332.72 217.966 332.72 218.165C332.72 218.365 332.72 218.564 332.72 218.764C332.72 218.963 332.72 219.163 332.72 219.363C332.72 219.563 332.72 219.763 332.72 219.963C332.72 220.163 332.72 220.363 332.72 220.563C332.72 220.763 332.72 220.964 332.72 221.164C332.72 221.365 332.72 221.565 332.72 221.766C332.72 221.967 332.72 222.167 332.72 222.368C332.72 222.569 332.72 222.77 332.72 222.971C332.72 223.172 332.72 223.373 332.72 223.575C332.72 223.776 332.72 223.977 332.72 224.179C332.72 224.38 332.72 224.582 332.72 224.783C332.72 224.985 332.72 225.187 332.72 225.389C332.72 225.59 332.72 225.792 332.72 225.994C332.72 226.196 332.72 226.398 332.72 226.6C332.72 226.802 332.72 227.005 332.72 227.207C332.72 227.409 332.72 227.612 332.72 227.814C332.72 228.016 332.72 228.219 332.72 228.422C332.72 228.624 332.72 228.827 332.72 229.03C332.72 229.232 332.72 229.435 332.72 229.638C332.72 229.841 332.72 230.044 332.72 230.247C332.72 230.45 332.72 230.653 332.72 230.856C332.72 231.059 332.72 231.262 332.72 231.465C332.72 231.668 332.72 231.872 332.72 232.075C332.72 232.278 332.72 232.482 332.72 232.685C332.72 232.888 332.72 233.092 332.72 233.295C332.72 233.499 332.72 233.702 332.72 233.906C332.72 234.11 332.72 234.313 332.72 234.517C332.72 234.721 332.72 234.924 332.72 235.128C332.72 235.332 332.72 235.536 332.72 235.739C332.72 235.943 332.72 236.147 332.72 236.351C332.72 236.555 332.72 236.759 332.72 236.963C332.72 237.167 332.72 237.371 332.72 237.575C332.72 237.779 332.72 237.983 332.72 238.187C332.72 238.391 332.72 238.595 332.72 238.799C332.72 239.003 332.72 239.207 332.72 239.411C332.72 239.616 332.72 239.82 332.72 240.024C332.72 240.228 332.72 240.432 332.72 240.636C332.72 240.841 332.72 241.045 332.72 241.249C332.72 241.453 332.72 241.657 332.72 241.862C332.72 242.066 332.72 242.27 332.72 242.474C332.72 242.678 332.72 242.883 332.72 243.087C332.72 243.291 332.72 243.495 332.72 243.7C332.72 243.904 332.72 244.108 332.72 244.312C332.72 244.516 332.72 244.721 332.72 244.925C332.72 245.129 332.72 245.333 332.72 245.537C332.72 245.742 332.72 245.946 332.72 246.15C332.72 246.354 332.72 246.558 332.72 246.762C332.72 246.966 332.72 247.17 332.72 247.374C332.72 247.578 332.72 247.782 332.72 247.986C332.72 248.191 332.72 248.395 332.72 248.598C332.72 248.802 332.72 249.006 332.72 249.21C332.72 249.414 332.72 249.618 332.72 249.822C332.72 250.026 332.72 250.23 332.72 250.433C332.72 250.637 332.72 250.841 332.72 251.044C332.72 251.248 332.72 251.452 332.72 251.655C332.72 251.859 332.72 252.063 332.72 252.266C332.72 252.47 332.72 252.673 332.72 252.877C332.72 253.08 332.72 253.283 332.72 253.487C332.72 253.69 332.72 253.893 332.72 254.096C332.72 254.3 332.72 254.503 332.72 254.706C332.72 254.909 332.72 255.112 332.72 255.315C332.72 255.518 332.72 255.721 332.72 255.924C332.72 256.127 332.72 256.329 332.72 256.532C332.72 256.735 332.72 256.938 332.72 257.14C332.72 257.343 332.72 257.545 332.72 257.748C332.72 257.95 332.72 258.153 332.72 258.355C332.72 258.557 332.72 258.759 332.72 258.962C332.72 259.164 332.72 259.366 332.72 259.568C332.72 259.77 332.72 259.972 332.72 260.174C332.72 260.375 332.72 260.577 332.72 260.779C332.72 260.98 332.72 261.182 332.72 261.384C332.72 261.585 332.72 261.786 332.72 261.988C332.72 262.189 332.72 262.39 332.72 262.591C332.72 262.792 332.72 262.993 332.72 263.194C332.72 263.395 332.72 263.596 332.72 263.797C332.72 263.997 332.72 264.198 332.72 264.399C332.72 264.599 332.72 264.799 332.72 265C332.72 265.2 332.72 265.4 332.72 265.6C332.72 265.8 332.72 266 332.72 266.2C332.72 266.4 332.72 266.6 332.72 266.799C332.72 266.999 332.72 267.198 332.72 267.398C332.72 267.597 332.72 267.796 332.72 267.996C332.72 268.195 332.72 268.394 332.72 268.593C332.72 268.791 332.72 268.99 332.72 269.189C332.72 269.388 332.72 269.586 332.72 269.784C332.72 269.983 332.72 270.181 332.72 270.379C332.72 270.577 332.72 270.775 332.72 270.973C332.72 271.171 332.72 271.369 332.72 271.566C332.72 271.764 332.72 271.961 332.72 272.158C332.72 272.356 332.72 272.553 332.72 272.75C332.72 272.947 332.72 273.143 332.72 273.34C332.72 273.537 332.72 273.733 332.72 273.93C332.72 274.126 332.72 274.322 332.72 274.518C332.72 274.715 332.72 274.91 332.72 275.106C332.72 275.302 332.72 275.498 332.72 275.693C332.72 275.888 332.72 276.084 332.72 276.279C332.72 276.474 332.72 276.669 332.72 276.864C332.72 277.058 332.72 277.253 332.72 277.447C332.72 277.642 332.72 277.836 332.72 278.03C332.72 278.224 332.72 278.418 332.72 278.612C332.72 278.806 332.72 278.999 332.72 279.193C332.72 279.386 332.72 279.579 332.72 279.772C332.72 279.965 332.72 280.158 332.72 280.351C332.72 280.544 332.72 280.736 332.72 280.928C332.72 281.121 332.72 281.313 332.72 281.505C332.72 281.697 332.72 281.888 332.72 282.08C332.72 282.271 332.72 282.463 332.72 282.654C332.72 282.845 332.72 283.036 332.72 283.227C332.72 283.417 332.72 283.608 332.72 283.798C332.72 283.989 332.72 284.179 332.72 284.369C332.72 284.559 332.72 284.748 332.72 284.938C332.72 285.127 332.72 285.317 332.72 285.506C332.72 285.695 332.72 285.884 332.72 286.072C332.72 286.261 332.72 286.45 332.72 286.638C332.72 286.826 332.72 287.014 332.72 287.202C332.72 287.39 332.72 287.577 332.72 287.765C332.72 287.952 332.72 288.139 332.72 288.326C332.72 288.513 332.72 288.7 332.72 288.886C332.72 289.072 332.72 289.259 332.72 289.445C332.72 289.631 332.72 289.816 332.72 290.002C332.72 290.187 332.72 290.373 332.72 290.558C332.72 290.743 332.72 290.928 332.72 291.112C332.72 291.297 332.72 291.481 332.72 291.665C332.72 291.849 332.72 292.033 332.72 292.217C332.72 292.4 332.72 292.583 332.72 292.767C332.72 292.95 332.72 293.132 332.72 293.315C332.72 293.498 332.72 293.68 332.72 293.862C332.72 294.044 332.72 294.226 332.72 294.408C332.72 294.589 332.72 294.77 332.72 294.951C332.72 295.132 332.72 295.313 332.72 295.494C332.72 295.674 332.72 295.854 332.72 296.034C332.72 296.214 332.72 296.394 332.72 296.574C332.72 296.753 332.72 296.932 332.72 297.111C332.72 297.29 332.72 297.469 332.72 297.647C332.72 297.825 332.72 298.003 332.72 298.181C332.72 298.359 332.72 298.536 332.72 298.714C332.72 298.891 332.72 299.068 332.72 299.244C332.72 299.421 332.72 299.597 332.72 299.773C332.72 299.95 332.72 300.125 332.72 300.301C332.72 300.476 332.72 300.651 332.72 300.826C332.72 301.001 332.72 301.176 332.72 301.35C332.72 301.525 332.72 301.699 332.72 301.872C332.72 302.046 332.72 302.219 332.72 302.393C332.72 302.566 332.72 302.738 332.72 302.911C332.72 303.083 332.72 303.256 332.72 303.428C332.72 303.599 332.72 303.771 332.72 303.942C332.72 304.113 332.72 304.284 332.72 304.455C332.72 304.626 332.72 304.796 332.72 304.966C332.72 305.136 332.72 305.306 332.72 305.475C332.72 305.644 332.72 305.813 332.72 305.982C332.72 306.151 332.72 306.319 332.72 306.487C332.72 306.655 332.72 306.823 332.72 306.991C332.72 307.158 332.72 307.325 332.72 307.492C332.72 307.658 332.72 307.825 332.72 307.991C332.72 308.157 332.72 308.323 332.72 308.488C332.72 308.654 332.72 308.819 332.72 308.983C332.72 309.148 332.72 309.312 332.72 309.476C332.72 309.64 332.72 309.804 332.72 309.967C332.72 310.131 332.72 310.294 332.72 310.456C332.72 310.619 332.72 310.781 332.72 310.943C332.72 311.105 332.72 311.267 332.72 311.428C332.72 311.589 332.72 311.75 332.72 311.911C332.72 312.071 332.72 312.231 332.72 312.391C332.72 312.551 332.72 312.71 332.72 312.869C332.72 313.028 332.72 313.187 332.72 313.345C332.72 313.504 332.72 313.661 332.72 313.819C332.72 313.977 332.72 314.134 332.72 314.291C332.72 314.447 332.72 314.604 332.72 314.76C332.72 314.916 332.72 315.072 332.72 315.227C332.72 315.382 332.72 315.537 332.72 315.692C332.72 315.846 332.72 316.001 332.72 316.154C332.72 316.308 332.72 316.462 332.72 316.615C332.72 316.768 332.72 316.92 332.72 317.072C332.72 317.225 332.72 317.376 332.72 317.528C332.72 317.679 332.72 317.83 332.72 317.981C332.72 318.132 332.72 318.282 332.72 318.432C332.72 318.581 332.72 318.731 332.72 318.88C332.72 319.029 332.72 319.178 332.72 319.326C332.72 319.474 332.72 319.622 332.72 319.769C332.72 319.917 332.72 320.064 332.72 320.21C332.72 320.357 332.72 320.503 332.72 320.649C332.72 320.794 332.72 320.94 332.72 321.085C332.72 321.23 332.72 321.374 332.72 321.518C332.72 321.662 332.72 321.806 332.72 321.949C332.72 322.092 332.72 322.235 332.72 322.377C332.72 322.52 332.72 322.662 332.72 322.803C332.72 322.945 332.72 323.086 332.72 323.226C332.72 323.367 332.72 323.507 332.72 323.647C332.72 323.787 332.72 323.926 332.72 324.065C332.72 324.204 332.72 324.342 332.72 324.48C332.72 324.618 332.72 324.756 332.72 324.893C332.72 325.03 332.72 325.167 332.72 325.303C332.72 325.439 332.72 325.575 332.72 325.71C332.72 325.846 332.72 325.981 332.72 326.115C332.72 326.249 332.72 326.383 332.72 326.517C332.72 326.65 332.72 326.783 332.72 326.916C332.72 327.049 332.72 327.181 332.72 327.312C332.72 327.444 332.72 327.575 332.72 327.706C332.72 327.837 332.72 327.967 332.72 328.097C332.72 328.227 332.72 328.356 332.72 328.485C332.72 328.614 332.72 328.742 332.72 328.87C332.72 328.998 332.72 329.125 332.72 329.252C332.72 329.379 332.72 329.506 332.72 329.632C332.72 329.758 332.72 329.883 332.72 330.008C332.72 330.133 332.72 330.258 332.72 330.382C332.72 330.506 332.72 330.629 332.72 330.752C332.72 330.875 332.72 330.998 332.72 331.12C332.72 331.242 332.72 331.364 332.72 331.485C332.72 331.606 332.72 331.727 332.72 331.847C332.72 331.967 332.72 332.086 332.72 332.205C332.72 332.325 332.72 332.443 332.72 332.561C332.72 332.679 332.72 332.797 332.72 332.914C332.72 333.031 332.72 333.148 332.72 333.264C332.72 333.38 332.72 333.495 332.72 333.61C332.72 333.725 332.72 333.84 332.72 333.954C332.72 334.068 332.72 334.181 332.72 334.294C332.72 334.407 332.72 334.52 332.72 334.632C332.72 334.744 332.72 334.855 332.72 334.966C332.72 335.077 332.72 335.187 332.72 335.297C332.72 335.407 332.72 335.516 332.72 335.625C332.72 335.733 332.72 335.842 332.72 335.949C332.72 336.057 332.72 336.164 332.72 336.271C332.72 336.377 332.72 336.483 332.72 336.589C332.72 336.695 332.72 336.8 332.72 336.904C332.72 337.008 332.72 337.112 332.72 337.216C332.72 337.319 332.72 337.422 332.72 337.524C332.72 337.626 332.72 337.728 332.72 337.829C332.72 337.93 332.72 338.031 332.72 338.131C332.72 338.231 332.72 338.331 332.72 338.43C332.72 338.528 332.72 338.627 332.72 338.725C332.72 338.822 332.72 338.92 332.72 339.016C332.72 339.113 332.72 339.209 332.72 339.305C332.72 339.4 332.72 339.495 332.72 339.59C332.72 339.684 332.72 339.778 332.72 339.871C332.72 339.965 332.72 340.057 332.72 340.149C332.72 340.241 332.72 340.333 332.72 340.424C332.72 340.515 332.72 340.605 332.72 340.695C332.72 340.785 332.72 340.874 332.72 340.963C332.72 341.051 332.72 341.14 332.72 341.227C332.72 341.314 332.72 341.401 332.72 341.488C332.72 341.574 332.72 341.66 332.72 341.745C332.72 341.83 332.72 341.914 332.72 341.998C332.72 342.082 332.72 342.165 332.72 342.248C332.72 342.331 332.72 342.413 332.72 342.494C332.72 342.576 332.72 342.657 332.72 342.737C332.72 342.817 332.72 342.897 332.72 342.976C332.72 343.055 332.72 343.134 332.72 343.212C332.72 343.289 332.72 343.367 332.72 343.443C332.72 343.52 332.72 343.596 332.72 343.671C332.72 343.747 332.72 343.822 332.72 343.896C332.72 343.97 332.72 344.043 332.72 344.116C332.72 344.189 332.72 344.262 332.72 344.333C332.72 344.405 332.72 344.476 332.72 344.546C332.72 344.617 332.72 344.687 332.72 344.756C332.72 344.825 332.72 344.893 332.72 344.961C332.72 345.029 332.72 345.096 332.72 345.163C332.72 345.229 332.72 345.295 332.72 345.361C332.72 345.426 332.72 345.491 332.72 345.555C332.72 345.619 332.72 345.682 332.72 345.745C332.72 345.808 332.72 345.87 332.72 345.931C332.72 345.993 332.72 346.053 332.72 346.114C332.72 346.174 332.72 346.233 332.72 346.292C332.72 346.351 332.72 346.409 332.72 346.467C332.72 346.524 332.72 346.581 332.72 346.637C332.72 346.693 332.72 346.749 332.72 346.804C332.72 346.859 332.72 346.913 332.72 346.966C332.72 347.02 332.72 347.073 332.72 347.125C332.72 347.177 332.72 347.229 332.72 347.279C332.72 347.33 332.72 347.38 332.72 347.43C332.72 347.479 332.72 347.528 332.72 347.576C332.72 347.624 332.72 347.672 332.72 347.719C332.72 347.765 332.72 347.812 332.72 347.857C332.72 347.902 332.72 347.947 332.72 347.991C332.72 348.035 332.72 348.078 332.72 348.121C332.72 348.164 332.72 348.206 332.72 348.247C332.72 348.288 332.72 348.329 332.72 348.369C332.72 348.408 332.72 348.448 332.72 348.486C332.72 348.525 332.72 348.562 332.72 348.599C332.72 348.636 332.72 348.673 332.72 348.708C332.72 348.744 332.72 348.779 332.72 348.813C332.72 348.847 332.72 348.881 332.72 348.914C332.72 348.947 332.72 348.979 332.72 349.01C332.72 349.041 332.72 349.072 332.72 349.102C332.72 349.132 332.72 349.161 332.72 349.19C332.72 349.218 332.72 349.246 332.72 349.273C332.72 349.3 332.72 349.326 332.72 349.352C332.72 349.378 332.72 349.402 332.72 349.427C332.72 349.451 332.72 349.474 332.72 349.497C332.72 349.52 332.72 349.542 332.72 349.563C332.72 349.584 332.72 349.604 332.72 349.624C332.72 349.644 332.72 349.663 332.72 349.681C332.72 349.699 332.72 349.717 332.72 349.734C332.72 349.75 332.72 349.766 332.72 349.782C332.72 349.797 332.72 349.811 332.72 349.825C332.72 349.839 332.72 349.852 332.72 349.864C332.72 349.877 332.72 349.888 332.72 349.899C332.72 349.91 332.72 349.919 332.72 349.929C332.72 349.938 332.72 349.946 332.72 349.954C332.72 349.962 332.72 349.969 332.72 349.975C332.72 349.981 332.72 349.987 332.72 349.991C332.72 349.996 332.72 350 332.72 350.003C332.72 350.006 332.72 350.008 332.72 350.01C332.72 350.011 332.72 350.012 336.22 350.012ZM339.72 136.012C339.72 123.54 328.565 115.512 316.72 115.512V122.512C325.874 122.512 332.72 128.485 332.72 136.012H339.72ZM316.72 115.512H295.22V122.512H316.72V115.512ZM291.72 119.012V306.012H298.72V119.012H291.72ZM297.563 303.412L257.063 266.912L252.377 272.112L292.877 308.612L297.563 303.412ZM258.22 269.512V77.0121H251.22V269.512H258.22ZM254.72 80.5121H308.72V73.5121H254.72V80.5121ZM308.72 80.5121C325.25 80.5121 344.935 90.402 360.638 105.128C376.353 119.864 387.22 138.63 387.22 155.512H394.22C394.22 135.894 381.836 115.41 365.426 100.022C349.005 84.6223 327.689 73.5121 308.72 73.5121V80.5121ZM387.225 155.705C388.679 182.118 381.309 200.178 371.304 213.4C361.187 226.769 348.313 235.322 338.165 242.679L342.274 248.346C352.127 241.203 366.002 232.006 376.886 217.624C387.88 203.096 395.76 183.406 394.214 155.32L387.225 155.705ZM337.851 248.089L461.851 362.089L466.588 356.936L342.588 242.936L337.851 248.089ZM461.745 361.987C465.903 366.146 469.019 369.045 471.252 372.617C473.361 375.992 474.72 380.082 474.72 386.512H481.72C481.72 378.942 480.078 373.532 477.188 368.907C474.42 364.479 470.536 360.879 466.695 357.037L461.745 361.987ZM474.72 386.512V441.512H481.72V386.512H474.72ZM184.767 268.891C188.196 274.279 190.09 277.488 193.062 281.172C196.026 284.844 200.045 288.98 207.776 296.518L212.663 291.506C204.905 283.943 201.175 280.079 198.51 276.776C195.855 273.486 194.244 270.745 190.672 265.133L184.767 268.891ZM207.776 296.518C225.345 313.647 260.703 347.128 286.829 371.568L291.611 366.456C265.494 342.024 230.178 308.583 212.663 291.506L207.776 296.518ZM480.6 438.947L355.6 322.947L350.839 328.078L475.839 444.078L480.6 438.947Z" fill="#1FF8F9"/>
<path d="M283.72 3.0121C93.2304 1.27027 -66.7249 187.746 34.2197 414.012" stroke="#1FF8F9" stroke-width="6" stroke-linecap="round" stroke-linejoin="round"/>
<path d="M272.22 3.0121C462.709 1.27027 622.664 187.746 521.72 414.012" stroke="#1FF8F9" stroke-width="6" stroke-linecap="round" stroke-linejoin="round"/>
<path d="M53.7197 445.012C149.577 585.229 356.83 624.967 500.72 451.512" stroke="#1FF8F9" stroke-width="6" stroke-linecap="round" stroke-linejoin="round"/>
</svg>
