<svg width="144" height="173" viewBox="0 0 144 173" fill="none" xmlns="http://www.w3.org/2000/svg">
<path fill-rule="evenodd" clip-rule="evenodd" d="M49.1465 1.44772C49.1465 0.648165 49.7916 0 50.5873 0H74.6609C82.4849 0.064557 91.4229 3.80269 98.414 9.85708C105.48 15.9762 110.74 24.6262 110.74 34.5649C110.74 46.9998 106.05 56.4582 100.451 62.8086C97.6561 65.9784 94.6278 68.3828 91.8283 70.0028C90.6928 70.6599 89.5725 71.2007 88.5033 71.6098L139.835 119.518L139.818 119.537C143.682 122.672 144 127.476 144 129.49L144 152.488L144 152.504C143.998 152.655 143.974 152.805 143.926 152.95C143.863 153.139 143.76 153.318 143.616 153.474C143.075 154.061 142.164 154.095 141.582 153.551L90.1425 105.483C89.5598 104.938 89.5257 104.021 90.0664 103.435C90.607 102.848 91.5177 102.814 92.1004 103.358L141.121 149.167L141.121 129.49C141.121 127.489 140.741 123.587 137.442 121.373C137.205 121.214 137.03 120.996 136.923 120.752L85.5666 72.8208V113.33C85.5665 120.763 79.5814 126.794 72.1918 126.794C70.6935 126.794 68.8926 126.004 67.0572 124.928C65.1526 123.813 62.9584 122.234 60.6005 120.356C55.8796 116.595 50.3805 111.532 45.0288 106.285C36.7948 98.2139 28.8035 89.604 24.4563 84.515V162.246C24.4563 168.185 18.6641 173 12.7526 173C6.8412 173 0 168.185 0 162.246V27.9485C0 22.009 4.79218 17.194 10.7036 17.194H12.7526C18.6641 17.194 24.4563 22.009 24.4563 27.9485V79.972C27.4403 83.8356 36.9881 94.3582 47.0412 104.213C52.3632 109.43 57.782 114.415 62.3909 118.087C64.6978 119.925 66.7715 121.409 68.5087 122.427C70.3149 123.485 71.5297 123.899 72.1918 123.899C77.984 123.899 82.6848 119.17 82.6848 113.33L82.6849 26.932C82.6849 23.2162 79.8915 20.2993 76.3069 20.2993H68.6945V96.5474C68.6945 97.1213 68.357 97.6411 67.8342 97.8723C67.3114 98.1036 66.7019 98.0027 66.2806 97.6151L49.6143 82.2832C49.3162 82.0089 49.1465 81.6215 49.1465 81.2154V1.44772ZM85.5666 69.4761C85.7232 69.4443 85.8854 69.407 86.0529 69.3639L86.0732 69.3418L86.0873 69.355C87.2859 69.0427 88.7553 68.4397 90.39 67.4938C92.9111 66.0348 95.6986 63.832 98.2937 60.8887C103.474 55.0131 107.858 46.2224 107.858 34.5649C107.858 25.6965 103.158 17.788 96.5326 12.0503C89.8937 6.30094 81.5052 2.89543 74.4552 2.89543H52.0282V80.578L65.8128 93.259V18.8516C65.8128 18.052 66.4579 17.4039 67.2536 17.4039H76.3069C81.586 17.4039 85.5666 21.7225 85.5666 26.932V69.4761ZM21.6393 81.0231L21.9862 80.7731V27.9485C21.9862 23.3796 17.2999 19.6758 12.7526 19.6758H10.7036C6.15636 19.6758 2.47007 23.3797 2.47007 27.9485V162.246C2.47007 166.814 8.20538 170.518 12.7526 170.518C17.2999 170.518 21.9862 166.814 21.9862 162.246V81.4934C21.8573 81.3232 21.7415 81.1662 21.6393 81.0231Z" fill="#1FF8F9"/>
</svg>
