<svg width="173" height="173" viewBox="0 0 173 173" fill="none" xmlns="http://www.w3.org/2000/svg">
<path fill-rule="evenodd" clip-rule="evenodd" d="M63.1465 1.44772C63.1465 0.648165 63.7916 0 64.5873 0H88.6609C96.4849 0.064557 105.423 3.80269 112.414 9.85708C119.48 15.9762 124.74 24.6262 124.74 34.5649C124.74 46.9998 120.05 56.4582 114.451 62.8086C111.656 65.9784 108.628 68.3828 105.828 70.0028C104.693 70.6599 103.573 71.2007 102.503 71.6098L153.835 119.518L153.818 119.537C157.682 122.672 158 127.476 158 129.49L158 152.488L158 152.504C157.998 152.655 157.974 152.805 157.926 152.95C157.863 153.139 157.76 153.318 157.616 153.474C157.075 154.061 156.164 154.095 155.582 153.551L104.143 105.483C103.56 104.938 103.526 104.021 104.066 103.435C104.607 102.848 105.518 102.814 106.1 103.358L155.121 149.167L155.121 129.49C155.121 127.489 154.741 123.587 151.442 121.373C151.205 121.214 151.03 120.996 150.923 120.752L99.5666 72.8208V113.33C99.5665 120.763 93.5814 126.794 86.1918 126.794C84.6935 126.794 82.8926 126.004 81.0572 124.928C79.1526 123.813 76.9584 122.234 74.6005 120.356C69.8796 116.595 64.3805 111.532 59.0288 106.285C50.7948 98.2139 42.8035 89.604 38.4563 84.515V162.246C38.4563 168.185 32.6641 173 26.7526 173C20.8412 173 14 168.185 14 162.246V27.9485C14 22.009 18.7922 17.194 24.7036 17.194H26.7526C32.6641 17.194 38.4563 22.009 38.4563 27.9485V79.972C41.4403 83.8356 50.9881 94.3582 61.0412 104.213C66.3632 109.43 71.782 114.415 76.3909 118.087C78.6978 119.925 80.7715 121.409 82.5087 122.427C84.3149 123.485 85.5297 123.899 86.1918 123.899C91.984 123.899 96.6848 119.17 96.6848 113.33L96.6849 26.932C96.6849 23.2162 93.8915 20.2993 90.3069 20.2993H82.6945V96.5474C82.6945 97.1213 82.357 97.6411 81.8342 97.8723C81.3114 98.1036 80.7019 98.0027 80.2806 97.6151L63.6143 82.2832C63.3162 82.0089 63.1465 81.6215 63.1465 81.2154V1.44772ZM99.5666 69.4761C99.7232 69.4443 99.8854 69.407 100.053 69.3639L100.073 69.3418L100.087 69.355C101.286 69.0427 102.755 68.4397 104.39 67.4938C106.911 66.0348 109.699 63.832 112.294 60.8887C117.474 55.0131 121.858 46.2224 121.858 34.5649C121.858 25.6965 117.158 17.788 110.533 12.0503C103.894 6.30094 95.5052 2.89543 88.4552 2.89543H66.0282V80.578L79.8128 93.259V18.8516C79.8128 18.052 80.4579 17.4039 81.2536 17.4039H90.3069C95.586 17.4039 99.5666 21.7225 99.5666 26.932V69.4761ZM35.6393 81.0231L35.9862 80.7731V27.9485C35.9862 23.3796 31.2999 19.6758 26.7526 19.6758H24.7036C20.1564 19.6758 16.4701 23.3797 16.4701 27.9485V162.246C16.4701 166.814 22.2054 170.518 26.7526 170.518C31.2999 170.518 35.9862 166.814 35.9862 162.246V81.4934C35.8573 81.3232 35.7415 81.1662 35.6393 81.0231Z" fill="#FF4645"/>
</svg>
